<svg xmlns="http://www.w3.org/2000/svg" xmlns:svg="http://www.w3.org/2000/svg" viewBox="0 0 742.2 724" version="1.1"><style>.s0{block-progression:tb;text-indent:0;text-transform:none;}</style><title>Snowflakes</title><g transform="translate(-1.0155 -83.392)" stroke="#d1d1d1"><path stroke-linejoin="round" d="m518.6 201.7v4.1l-3.4 1.9 3.4 2.2v3.8l-3.4 2.2-3.4-2.2v4.1l-3.4 2.2 3.4 1.9v4.1l3.4-1.9 3.4 1.9v4.1l-3.4 1.9 3.4 2.2v3.8l-3.4 2.2-3.4-2.2v4.1l-3.4 2.2-3.4-2.2v-4.1l-3.7 2.2-3.4-2.2v4.1l-3.4 2.2 3.4 1.9v4.1l-3.4 1.9-3.4-1.9v4.1l-3.4 1.9 3.4 2.2v3.8l3.4-1.9 3.4 1.9v4.1l-3.4 2.2 3.4 1.9v4.1l3.4-1.9 3.8 1.9v-4.1l3.4-1.9 3.4 1.9v4.1l3.4-1.9 3.4 1.9v4.1l-3.4 1.9 3.4 2.2v3.8l-3.4 2.2-3.4-2.2v4.1l-3.4 2.2 3.4 1.9v4.1l3.4-1.9 3.4 1.9v4.1l-3.4 1.9 3.4 2.2v3.8l3.4-1.9 3.4 1.9v-3.7l3.4-2.2 3.4 2.2v3.8l3.8-1.9 3.4 1.9v-3.7l3.4-2.2-3.4-1.9v-4.1l3.4-1.9 3.4 1.9v-4.1l3.4-1.9 3.4 1.9v4.1l3.4-1.9 3.4 1.9v4.1l-3.4 1.9 3.4 2.2v3.8l3.4-1.9 3.8 1.9v-3.7l3.4-2.2 3.4 2.2v3.8l3.4-1.9 3.4 1.9v-3.7l3.4-2.2-3.4-1.9v-4.1l3.4-1.9 3.4 1.9v-4.1l3.4-1.9-3.4-2.2v-4.1l-3.4 2.2-3.4-2.2v-3.7l3.4-2.2-3.4-1.9v-4.1l3.4-1.9 3.4 1.9v-4.1l3.4-1.9 3.4 1.9v4.1l3.8-1.9 3.4 1.9v-4.1l3.4-1.9-3.4-2.2v-4.1l3.4-1.9 3.4 1.9v-3.7l3.4-2.2-3.4-1.9v-4.1l-3.4 1.9-3.4-1.9v-4.1l3.4-1.9-3.4-2.2v-4.1l-3.4 2.2-3.7-2.2v4.1l-3.4 2.2-3.4-2.2v-4.1l-3.4 2.2-3.4-2.2v-3.7l3.4-2.2-3.4-1.9v-4.1l3.4-1.9 3.4 1.9v-4.1l3.4-1.9-3.4-2.2v-4.1l-3.4 2.2-3.4-2.2v-3.7l3.4-2.2-3.4-1.9v-4.1l-3.4 1.9-3.4-1.9v4.1l-3.4 1.9-3.4-1.9v-4.1l-3.7 1.9-3.4-1.9v4.1l-3.4 1.9 3.4 2.2v3.8l-3.4 2.2-3.4-2.2v4.1l-3.4 2.2-3.4-2.2v-4.1l-3.4 2.2-3.4-2.2v-3.7l3.4-2.2-3.4-1.9v-4.1l-3.4 1.9-3.7-1.9v4.1l-3.4 1.9-3.4-1.9v-4.1l-3.4 1.9zm-62.6-0.1 10.3 17.8-10.1 18.3 20.7 0 10.3 17.8-10.1 18.3-21.4-0.2 10.6 18.3-10.3 17.9 20.6 0 10.6 18.3 10.8-18.1 20.7 0 10.3 17.8-10.1 18.3 20.7 0 10.3 17.8 10.3-17.9 21.1-0.3-10.3-17.8 10.4-17.9 20.6 0 10.3 17.8 10.8-18.1 20.7 0-10.3-17.8 10.3-17.9-20.9-0.4-10.3-17.8 10.3-17.9 21.1-0.3-10.6-18.3 10.4-17.9-20.6 0.1-10.6-18.3-10.5 18.6-20.9-0.4-10.3-17.8 10.3-17.9-20.9-0.4-10.3-17.8-10.4 17.9-21.1 0.3 10.3 17.8-10.1 18.3-20.9-0.4-10.3-17.8-10.8 18.1zm188.8-110.4-79.6 64.1-0.2 1.2-15.2-8.7-15.4 8.9-0.3-1.7-79.5-63.6 15.4 100.6 1.1 0.9-15.5 8.9v17.3l-1-0.4-94.9 37.1 94.9 37 1.1-0.4v17.3l15.5 8.9-0.7 0.6-15.7 101 0.3 0.1 79.6-64.1 0.2-1.2 15.2 8.7 15.2-8.7 0.3 1.7 79.5 63.6-15.4-100.6-1.1-0.9 15.8-9.1v-17.3l1.1 0.4 94.9-37-94.9-37-1 0.4v-17.4l-15.5-8.9 0.8-0.6 15.7-100.9-0.3-0.2zm0.6 330.1-97.6-38.9-93.6 38.9-15.1-103.9-80.5-61.6 82.5-65.1 13.1-100.5 97.6 38.9 93.6-38.9 15.1 103.9 80.5 61.6-82.5 65.1z" fill-rule="evenodd" stroke-linecap="round" stroke-width="2" fill="#e6fcfc"/><path d="m137.7 84.4-6.2 6.5 28.8 27.3 0 0 2.1 2.2v19.1l-15.5-14.1-6 6.7 21.6 19.5v16.2c-1.2-0.4-2.2-0.7-3.7-1.1-5.4-1.7-12.6-3.9-19.9-6.1-7.2-2.2-14.4-4.4-19.9-6.1-2.7-0.8-5-1.5-6.6-2-0.8-0.2-1.5-0.4-1.9-0.5-0.2-0.1-0.4-0.1-0.6-0.2-0.1 0-0.2-0.1-0.3-0.1-0.1 0-0.2 0-0.4 0-0.1 0-0.2 0-0.4 0-0.2 0-1.7 0.5-1.7 0.5 0 0-1.2 1.1-1.3 1.3-0.1 0.2-0.2 0.3-0.2 0.4-0.1 0.2-0.1 0.3-0.1 0.3 0 0.1-0.1 0.2-0.1 0.3 0 0.2-0.1 0.4-0.1 0.6-0.1 0.5-0.3 1.2-0.5 2-0.4 1.6-0.9 3.9-1.6 6.7-1.3 5.5-3 12.9-4.7 20.3-1.7 7.4-3.4 14.8-4.7 20.3-0.3 1.5-0.6 2.5-0.8 3.7l-14-8.1-6.1-28.4-8.8 1.9 4.4 20.5-16.5-9.5-0.8-2.8h0l-9.2-38.6-8.7 2.1 7.9 33-5.3-3.1-4.5 7.8 5.3 3.1-32.5 9.7 2.6 8.6 38-11.3v0l2.9-0.7 16.5 9.5-20 6.4 2.8 8.6 27.7-8.9 14 8.1c-0.9 0.9-1.6 1.5-2.7 2.6-4.2 3.9-9.7 9-15.2 14.1-5.5 5.2-11 10.3-15.2 14.2-2.1 1.9-3.8 3.6-5 4.7-0.6 0.6-1.1 1-1.4 1.4-0.2 0.2-0.3 0.3-0.4 0.5-0.1 0.1-0.1 0.1-0.2 0.2 0 0.1-0.1 0.1-0.2 0.3-0.1 0.1-0.1 0.2-0.2 0.4-0.1 0.2-0.4 1.7-0.4 1.7 0 0 0.3 1.5 0.5 1.7 0.1 0.2 0.2 0.3 0.3 0.4 0.1 0.2 0.2 0.2 0.3 0.3 0.1 0.1 0.1 0.2 0.2 0.2 0.1 0.1 0.3 0.3 0.5 0.5 0.4 0.3 0.8 0.8 1.4 1.4 1.2 1.2 3 2.8 5 4.8 4.2 3.9 9.7 9 15.2 14.2 5.5 5.2 11.1 10.3 15.2 14.2 1.2 1.1 1.9 1.8 2.8 2.6l-14.1 8.2-27.7-8.9-2.8 8.6 20 6.4-16.5 9.5-2.9-0.7v0l-38-11.3-2.6 8.6 32.6 9.7-5.3 3.1 4.5 7.8 5.3-3.1-7.9 33 8.7 2.1 9.2-38.6 0 0 0.8-2.9 16.5-9.5-4.4 20.5 8.8 1.9 6.1-28.4 14.1-8.1c0.3 1.2 0.5 2.1 0.8 3.6 1.3 5.5 3 12.9 4.7 20.3 1.7 7.4 3.4 14.7 4.7 20.3 0.6 2.8 1.2 5.1 1.6 6.7 0.2 0.8 0.4 1.5 0.5 2 0.1 0.2 0.1 0.4 0.1 0.6 0 0.1 0 0.1 0.1 0.3 0 0.1 0.1 0.2 0.1 0.4 0 0.1 0.1 0.2 0.2 0.4 0.1 0.2 1.3 1.3 1.3 1.3 0 0 1.5 0.5 1.7 0.5 0.3 0 0.4 0 0.5 0 0.2 0 0.3 0 0.4 0 0.1 0 0.2-0.1 0.3-0.1 0.2 0 0.4-0.1 0.6-0.1 0.5-0.1 1.1-0.3 1.9-0.6 1.6-0.5 3.9-1.2 6.6-2 5.4-1.6 12.7-3.8 19.9-6.1 7.2-2.2 14.4-4.5 19.9-6.1 1.5-0.4 2.4-0.7 3.5-1.1v16.2l-21.6 19.5 6 6.7 15.5-14.1v19.1l-2 2.2 0 0-28.8 27.3 6.2 6.5 24.7-23.3v6.2h9v-6.2l24.7 23.3 6.2-6.5-28.8-27.3 0 0-2-2.2v-19.1l15.5 14.1 6-6.7-21.6-19.5v-16.2c1.2 0.4 2.2 0.7 3.7 1.1 5.4 1.7 12.7 3.9 19.9 6.1 7.2 2.2 14.4 4.4 19.9 6.1 2.7 0.8 5 1.5 6.6 2 0.8 0.2 1.5 0.4 1.9 0.6 0.2 0.1 0.4 0.1 0.6 0.1 0.1 0 0.2 0.1 0.3 0.1 0.1 0 0.1 0 0.3 0 0.1 0 0.2 0 0.5 0 0.3 0 1.7-0.5 1.7-0.5 0 0 1.2-1 1.3-1.3 0.1-0.2 0.2-0.3 0.2-0.4 0.1-0.2 0.1-0.3 0.1-0.4 0.1-0.1 0.1-0.2 0.1-0.3 0.1-0.2 0.1-0.3 0.1-0.6 0.1-0.5 0.3-1.1 0.5-2 0.4-1.6 0.9-3.9 1.6-6.7 1.3-5.5 3-12.9 4.7-20.3 1.7-7.4 3.4-14.7 4.7-20.3 0.3-1.5 0.5-2.4 0.8-3.6l13.9 8 6.1 28.5 8.8-1.9-4.4-20.5 16.5 9.5 0.8 2.8h0.1l9.2 38.6 8.7-2.1-7.9-33 5.3 3.1 4.5-7.8-5.3-3.1 32.5-9.7-2.6-8.6-38 11.3 0 0-2.9 0.7-16.5-9.5 20-6.4-2.7-8.6-27.7 8.9-14-8c0.9-0.9 1.7-1.5 2.8-2.6 4.2-3.9 9.7-9 15.2-14.2 5.5-5.1 11.1-10.3 15.2-14.2 2.1-1.9 3.8-3.6 5-4.7 0.6-0.6 1.1-1 1.5-1.4 0.2-0.2 0.3-0.3 0.4-0.4 0.1-0.1 0.1-0.1 0.2-0.2 0.1-0.1 0.1-0.1 0.3-0.2 0.1-0.1 0.1-0.2 0.3-0.4 0.1-0.2 0.5-1.7 0.5-1.7 0 0-0.3-1.5-0.4-1.7-0.1-0.2-0.2-0.3-0.2-0.4-0.1-0.2-0.2-0.2-0.2-0.2-0.1-0.1-0.1-0.2-0.2-0.2-0.1-0.1-0.2-0.3-0.4-0.4-0.3-0.3-0.8-0.8-1.5-1.4-1.2-1.2-3-2.8-5-4.7-4.1-3.9-9.7-9-15.2-14.2-5.5-5.1-11.1-10.3-15.2-14.1-1.1-1-1.8-1.7-2.7-2.5l14.1-8.1 27.7 9 2.8-8.6-20-6.4 16.5-9.5 2.9 0.7v-0.1l38 11.3 2.5-8.6-32.5-9.7 5.3-3.1-4.5-7.8-5.3 3.1 7.9-33-8.7-2.1-9.2 38.6h0l-0.9 2.9-16.5 9.5 4.4-20.5-8.8-1.9-6.1 28.5-14 8.1c-0.3-1.2-0.5-2.2-0.9-3.7-1.3-5.5-3-12.9-4.7-20.3-1.7-7.4-3.4-14.7-4.7-20.3-0.6-2.8-1.2-5-1.6-6.7-0.2-0.8-0.4-1.5-0.5-2-0.1-0.2-0.1-0.4-0.1-0.6 0-0.1 0-0.2-0.1-0.3 0-0.1-0.1-0.2-0.1-0.3 0-0.1-0.1-0.2-0.2-0.4-0.1-0.2-1.3-1.3-1.3-1.3 0 0-1.5-0.5-1.7-0.5-0.2 0-0.4 0-0.5 0-0.2 0-0.3 0-0.3 0-0.1 0-0.2 0.1-0.3 0.1-0.2 0-0.4 0.1-0.6 0.2-0.5 0.1-1.1 0.3-1.9 0.5-1.6 0.5-3.9 1.2-6.6 2-5.4 1.7-12.6 3.9-19.9 6.1-7.2 2.2-14.4 4.5-19.9 6.1-1.5 0.5-2.4 0.7-3.6 1.1v-16.2l21.6-19.5-6-6.7-15.5 14.1v-19.1l2.1-2.2 0 0 28.8-27.3-6.2-6.5-24.6 23.3v-6.2h-9v6.2l-24.6-23.3zm-26.4 75.3c1.5 0.5 3.2 1 5.5 1.7 5.4 1.7 12.7 3.9 19.9 6.1 5.2 1.6 9.8 3 14.4 4.4l-0.9 1.1 12.2 9.9v23.6c-3.8 4.1-6.8 7.3-10 10.7-12.4-15.7-28.2-35.7-28.4-35.6-0.2 0.1 9.2 23.8 16.6 42.4-4.5 1-8.8 2-14.2 3.3l-20.5-11.8-2.4-15.5-1.5 0.2c1.1-4.6 2.2-9.3 3.4-14.6 1.7-7.4 3.4-14.7 4.6-20.2 0.5-2.3 1-4.1 1.3-5.6zm111 0c0.4 1.5 0.8 3.3 1.3 5.6 1.3 5.5 3 12.9 4.7 20.2 1.2 5.3 2.3 10 3.4 14.7l-1.4-0.2-2.4 15.5-20.5 11.8c-5.4-1.3-9.8-2.3-14.3-3.3 7.4-18.6 16.8-42.3 16.6-42.4-0.2-0.1-16 19.9-28.4 35.6-3.1-3.3-6.1-6.5-9.9-10.6v-23.7l12.2-9.9-0.9-1.1c4.5-1.4 9.1-2.8 14.3-4.4 7.2-2.2 14.5-4.4 19.9-6.1 2.3-0.7 4-1.2 5.5-1.7zm-120.9 63.6 20.6 11.9c1.6 5.3 2.9 9.5 4.2 13.9-19.8 2.9-45 6.6-45 6.8 0 0.2 25.2 3.9 45 6.8-1.3 4.4-2.7 8.7-4.3 14l-20.5 11.9-14.6-5.6-0.5 1.3c-3.5-3.2-7-6.5-11-10.2-5.5-5.1-11.1-10.3-15.2-14.2-1.7-1.6-3-2.8-4.2-3.9 1.1-1.1 2.5-2.3 4.2-3.9 4.1-3.9 9.7-9 15.2-14.2 4-3.7 7.5-7 11-10.2l0.5 1.4 14.6-5.6zm130.9 0 14.6 5.6 0.5-1.3c3.5 3.2 6.9 6.5 10.9 10.2 5.5 5.2 11.1 10.3 15.2 14.2 1.7 1.6 3.1 2.9 4.2 3.9-1.1 1.1-2.4 2.3-4.2 3.9-4.1 3.9-9.7 9-15.2 14.2-4 3.7-7.6 7.1-11.1 10.3l-0.6-1.4-14.6 5.6-20.3-11.7c-1.6-5.3-2.9-9.7-4.3-14.1 19.8-2.9 45-6.6 45-6.8 0-0.2-25.2-3.9-45-6.8 1.3-4.3 2.6-8.5 4.2-13.8l20.6-11.9zm-79 9.1c0.1 0 13.4 4.1 13.5 4.1 0.1 0 13.4-4.1 13.5-4.1 0.1 0 3.2 13.7 3.2 13.8 0 0.1 10.3 9.6 10.3 9.6 0 0.1-10.3 9.6-10.3 9.6 0 0.1-3.1 13.7-3.2 13.8-0.1 0-13.4-4.1-13.5-4.1-0.1 0-13.4 4.1-13.5 4.1-0.1 0-3.2-13.7-3.2-13.7 0-0.1-10.3-9.6-10.3-9.6 0-0.1 10.3-9.6 10.3-9.6 0-0.1 3.1-13.7 3.2-13.7zm-26.8 52c5.4 1.3 9.7 2.2 14.1 3.2-7.4 18.6-16.8 42.3-16.6 42.4 0.2 0.1 16-19.9 28.4-35.6 3.1 3.3 6.1 6.5 9.8 10.6v23.8l-12.2 9.9 1 1.2c-4.5 1.4-9.1 2.8-14.3 4.4-7.2 2.2-14.4 4.4-19.9 6.1-2.3 0.7-4 1.2-5.5 1.7-0.4-1.5-0.8-3.3-1.3-5.6-1.3-5.5-2.9-12.8-4.6-20.2-1.2-5.3-2.3-9.9-3.4-14.5l1.4 0.2 2.5-15.5 20.7-11.9zm80.6 0 20.5 11.9 2.5 15.5 1.6-0.2c-1.1 4.6-2.2 9.3-3.4 14.6-1.7 7.4-3.4 14.7-4.7 20.2-0.5 2.3-1 4.1-1.3 5.6-1.5-0.4-3.2-1-5.5-1.7-5.4-1.6-12.6-3.8-19.9-6.1-5.2-1.6-9.8-3-14.4-4.4l0.9-1.1-12.2-9.9v-23.6c3.8-4.1 6.9-7.4 10-10.7 12.4 15.7 28.2 35.7 28.4 35.6 0.2-0.1-9.2-23.8-16.6-42.4 4.4-1 8.6-2 14.1-3.2z" stroke-width="2" fill="#e6fcfc" class="s0"/><path d="m160.8 690.2 0.5-43-43 1.3 37.5-21.1-22.6-36.6 37 21.9 20.4-37.8-0.5 43 43-1.3-37.5 21.1 22.6 36.6-37-21.9zm-84.4-84 13.8 13.8-4.7 19.3 18.9-5.1 13.8 13.8-4.7 19.3-19.7 5.1 14.2 14.2-5.1 18.9 18.9-5.1 14.2 14.2 5.5-19.3 18.9-5.1 13.8 13.8-4.7 19.3 18.9-5.1 13.8 13.8 5.1-18.9 19.3-5.5-13.8-13.8 5.1-18.9 18.9-5.1 13.8 13.8 5.5-19.3 18.9-5.1-13.8-13.8 5.1-18.9-19.3 4.7-13.8-13.8 5.1-18.9 19.3-5.5-14.2-14.2 5.1-18.9-18.9 5.1-14.2-14.2-5.1 19.7-19.3 4.7-13.8-13.8 5.1-18.9-19.3 4.7-13.8-13.8-5.1 18.9-19.3 5.5 13.8 13.8-4.7 19.3-19.3 4.7-13.8-13.8-5.5 19.3zm126.4 126.6-100.3-26.9-26.9-100.3 73.4-73.4 100.3 26.9 26.9 100.3zm-154.1-227.3l3 11.3-8.2 7.8 11.2 3.5 2.8 10.4-7.9 8.7-11.2-3.5 3 11.3-7.9 8.7 11 2.7 3 11.3 8.2-7.8 11 2.7 3 11.3-8.2 7.8 11.2 3.5 2.8 10.4-7.9 8.7-11.2-3.5 3 11.3-7.9 8.7-11.2-3.5-3-11.3-8.8 8.9-11.2-3.5 3 11.3-7.9 8.7 11 2.7 3 11.3-8.2 7.8-11-2.7 3 11.3-8.2 7.8 11.2 3.5 2.8 10.4 8.2-7.8 11 2.7 3 11.3-7.9 8.7 11 2.7 3 11.3 8.2-7.8 11.8 2.4-3-11.3 8.2-7.8 11 2.7 3 11.3 8.2-7.8 11 2.7 3 11.3-8.2 7.8 11.2 3.5 2.8 10.4-7.9 8.7-11.2-3.5 3 11.3-7.9 8.7 11 2.7 3 11.3 8.2-7.8 11 2.7 3 11.3-8.2 7.8 11.2 3.5 2.8 10.4 8.2-7.8 11 2.7-2.8-10.4 7.9-8.6 11.2 3.5 2.8 10.4 9-8 11 2.7-2.8-10.4 7.9-8.6-11-2.7-3-11.3 8.2-7.8 11 2.7-3-11.3 8.2-7.8 11 2.7 3 11.3 8.2-7.8 11 2.7 3 11.3-8.2 7.8 11.2 3.5 2.8 10.4 8.2-7.8 11.8 2.4-2.8-10.4 7.9-8.6 11.2 3.5 2.8 10.4 8.2-7.8 11 2.7-2.8-10.4 7.9-8.6-11-2.7-3-11.3 8.2-7.8 11 2.7-3-11.3 8.2-7.8-11.2-3.5-3-11.3-7.9 8.7-11.2-3.5-2.8-10.4 7.9-8.6-11-2.7-3-11.3 8.2-7.8 11 2.7-3-11.3 8.2-7.8 11 2.7 3 11.3 9-8 11 2.7-3-11.3 8.2-7.8-11.2-3.5-3-11.3 8.2-7.8 11 2.7-2.8-10.4 7.9-8.6-11-2.7-3-11.3-8.2 7.8-11-2.7-3-11.3 8.2-7.8-11.2-3.5-3-11.3-7.9 8.7-12.1-3.3 3 11.3-7.9 8.7-11.2-3.5-3-11.3-7.9 8.7-11.2-3.5-2.8-10.4 7.9-8.6-11-2.7-3-11.3 8.2-7.8 11 2.7-3-11.3 8.2-7.8-11.2-3.5-3-11.3-7.9 8.7-11.2-3.5-2.8-10.4 7.9-8.6-11-2.7-3-11.3-8.2 7.8-11-2.7 3 11.3-8.2 7.8-11-2.7-3-11.3-9 8-11-2.7 3 11.3-8.2 7.8 11.2 3.5 2.8 10.4-7.9 8.7-11.2-3.5 3 11.3-7.9 8.7-11.2-3.5-3-11.3-7.9 8.7-11.2-3.5-2.8-10.4 7.9-8.6-11-2.7-3-11.3-8.2 7.8-11.8-2.4 3 11.3-8.2 7.8-11-2.7-3-11.3-8.2 7.8z" fill-rule="evenodd" stroke-linecap="square" stroke-width="2" fill="#e6fcfc"/><g transform="translate(127.87 275.29)"><path d="m-30 190-51.6-22.1-6 55.8-6.7-55.7-51.3 22.7 44.9-33.6l-45.3-33.1 51.6 22.1 6-55.8 6.7 55.7 51.3-22.7-44.9 33.7z" fill-rule="evenodd" transform="matrix(1.1023 -1.2129 1.1643 1.275 355.01 41.125)" stroke-linecap="square" stroke-width="1.2" fill="#e6fcfc"/><path d="m382.2 181.7 0.5 14.4-7.4 12.2 12.5 6.8 6.7 12.8 10.9-6.9 3.5 13.2-9.2-0.4 0.4 10.7-5.6 9.1 9.3 5.1 5 9.5 7.8-4.9 2.9 10.9-5.6-0.2 0.3 7-3.6 5.9 6.1 3.3 3.3 6.2 4.8-3 7 26.3 2.4-0.6-7-26.3 5.6 0.2-0.2-7 3.6-5.9-6.1-3.3-3.3-6.2-4.8 3-2.9-10.9 9.3 0.3-0.4-10.7 5.5-9-9.3-5-5-9.5-7.9 5-3.5-13.2 12.9 0.5-0.5-14.4 7.5-12.2-12.6-6.8-6.7-12.7-10.9 6.9-0.1-0.2-2.3 0.6 0.1 0.2-12.9-0.5zM274.5 288.4l0.4 13.1-0.2-0.1-0.7 2.4 0.2 0.1-6.9 11.1 12.7 6.7 6.7 12.7 12.2-7.6 14.4 0.5-0.4-13 13.1 3.5-5 8 9.4 5 5 9.4 9.1-5.6 10.7 0.3-0.3-9.3 10.8 2.9-3 4.8 6.1 3.3 3.3 6.2 5.9-3.7 6.9 0.2-0.2-5.7 26.1 7 0.6-2.4-26.1-6.9 3-4.8-6.1-3.3-3.3-6.2-5.9 3.7-6.9-0.2 0.2 5.7-10.8-2.9 5-7.9-9.4-5-5-9.4-9.1 5.7-10.7-0.3 0.3 9.4-13.1-3.5 6.9-11.1-12.7-6.7-6.7-12.6-12.2 7.6-14.3-0.5M274.5 288.4l0.4 13.1-0.2-0.1-0.7 2.4 0.2 0.1-6.9 11.1 12.7 6.7 6.7 12.7 12.2-7.6 14.4 0.5-0.4-13 13.1 3.5-5 8 9.4 5 5 9.4 9.1-5.6 10.7 0.3-0.3-9.3 10.8 2.9-3 4.8 6.1 3.3 3.3 6.2 5.9-3.7 6.9 0.2-0.2-5.7 26.1 7 0.6-2.4-26.1-6.9 3-4.8-6.1-3.3-3.3-6.2-5.9 3.7-6.9-0.2 0.2 5.7-10.8-2.9 5-7.9-9.4-5-5-9.4-9.1 5.7-10.7-0.3 0.3 9.4-13.1-3.5 6.9-11.1-12.7-6.7-6.7-12.6-12.2 7.6-14.3-0.5zM528.3 221.1l0.5 14.3-7.6 12.2 11.5 6.1-9.6 9.6-4.4-8.2-9.1 5.7-10.7-0.4 0.4 10.6-5.6 9.1 8.3 4.4-7.9 7.9-2.7-5-5.9 3.7-7-0.3 0.3 7-3.7 5.9 5.1 2.7-19.2 19.1 1.8 1.8 19.2-19.1 2.7 5 5.9-3.7 7 0.3-0.2-7 3.7-5.9-5-2.7 7.9-7.9 4.4 8.3 9.1-5.6 10.7 0.4-0.3-10.6 5.7-9-8.3-4.4 9.6-9.6 6.2 11.5 12.2-7.6 14.4 0.5-0.5-14.3 7.6-12.2-11.6-6.1 0.2-0.2-1.7-1.7-0.2 0.2-6.1-11.5-12.2 7.6-14.4-0.5zM412 319.3l0.7 21.4-11.2 18.2 18.8 10.1 10.1 18.9 18.1-11.3 21.4 0.8-0.8-21.4 11.3-18.1-18.9-10.1-10.1-18.9-18.1 11.3-21.3-0.7zM418.8 369.7l-19.2 19.1-2.7-5-5.9 3.7-7-0.3 0.3 7-3.7 5.9 5 2.7-7.9 7.9-4.4-8.2-9.1 5.7-10.7-0.4 0.4 10.6-5.6 9 8.3 4.4-9.6 9.6-6.2-11.5-12.2 7.6-14.4-0.5 0.5 14.3-7.6 12.2 11.6 6.1-0.2 0.2 1.8 1.7 0.2-0.2 6.2 11.5 12.2-7.6 14.4 0.5-0.5-14.3 7.6-12.2-11.6-6.1 9.6-9.6 4.4 8.3 9.1-5.6 10.7 0.4-0.4-10.6 5.7-9.1-8.3-4.4 7.9-7.9 2.7 5 5.9-3.7 7 0.2-0.2-6.9 3.7-5.9-5-2.7 19.2-19.1-1.8-1.7zM470.8 356.3l-0.6 2.4 26.1 7-3 4.8 6.1 3.3 3.3 6.2 5.9-3.7 7 0.2-0.2-5.7 10.8 2.9-5 8 9.4 5 5 9.4 9.1-5.7 10.7 0.3-0.3-9.3 13.1 3.5-6.9 11.1 12.7 6.7 6.7 12.7 12.2-7.6 14.4 0.5-0.4-13 0.2 0.1 0.7-2.4-0.2-0.1 6.9-11.1-12.7-6.7-6.7-12.6-12.2 7.6-14.4-0.4 0.5 13-13.1-3.5 5-8-9.4-5-5-9.4-9.1 5.7-10.7-0.3 0.3 9.4-10.8-2.9 3-4.8-6.1-3.3-3.2-6.1-5.9 3.7-6.9-0.2 0.2 5.7-26.1-6.9zM447.3 377.5l7 26.3-5.6-0.2 0.3 7-3.6 5.9 6.1 3.3 3.2 6.2 4.8-3 2.9 10.9-9.3-0.4 0.4 10.7-5.5 9 9.3 5.1 5 9.5 7.9-4.9 3.5 13.2-12.9-0.5 0.6 14.4-7.4 12.2 12.5 6.9 6.7 12.7 11-6.9 0.1 0.2 2.3-0.6-0.1-0.2 12.9 0.5-0.5-14.4 7.4-12.2-12.5-6.8-6.7-12.7-10.9 6.9-3.5-13.2 9.3 0.3-0.4-10.7 5.5-9.1-9.3-5-5-9.5-7.9 5-2.9-10.9 5.7 0.2-0.3-7 3.6-5.9-6.1-3.3-3.2-6.2-4.8 3-7-26.3-2.3 0.6z" stroke-width="2" fill="#e6fcfc" class="s0"/></g></g></svg>
