<svg width="100%" height="100%" viewBox="0 0 1630 1630"
   xmlns="http://www.w3.org/2000/svg"
   xmlns:xlink="http://www.w3.org/1999/xlink">
   
  <title>Christmas Wreath</title>
  
  <desc>
    Reworked Algot Runemn's excellent work https://openclipart.org/detail/234112/christmas-wreath-2015
    Reduced the file size (less than 1% of original) and made it easier to hand edit
    
    Jay Nick
    steamcoded.org
  </desc>
  
  <defs>
    <filter id="filter4121-6" style="color-interpolation-filters:sRGB" >
      <feGaussianBlur id="feGaussianBlur4123-2" stdDeviation="0.61586574" />
    </filter>
    <filter id="filter3779-0-5" style="color-interpolation-filters:sRGB" x="-0.15604664" y="-0.064490505" width="1.3120933" height="1.128981">
      <feGaussianBlur id="feGaussianBlur3781-7-1" stdDeviation="1.8168244" />
    </filter>
    <filter id="filter3845-6-5" style="color-interpolation-filters:sRGB">
      <feGaussianBlur id="feGaussianBlur3847-1-3" stdDeviation="0.205061" />
    </filter>
    <filter id="filter3849-0-9" style="color-interpolation-filters:sRGB">
      <feGaussianBlur id="feGaussianBlur3851-3-4" stdDeviation="0.205061" />
    </filter>
    <filter id="filter3853-0-0" style="color-interpolation-filters:sRGB">
      <feGaussianBlur id="feGaussianBlur3855-4-2" stdDeviation="0.205061" />
    </filter>
  </defs>
     
  <style type="text/css"><![CDATA[
    .needle {fill:#008000;fill-rule:evenodd;stroke:#000000;stroke-width:0.92826509px;stroke-linecap:butt;stroke-linejoin:miter;stroke-opacity:1}
    .stick {fill:#550000;fill-rule:evenodd;stroke:#000000;stroke-width:0.92826509px;stroke-linecap:butt;stroke-linejoin:miter;stroke-opacity:1}
    .bud {fill:#d40000;fill-rule:evenodd;stroke:#000000;stroke-width:0.432917px;stroke-linecap:butt;stroke-linejoin:miter;stroke-opacity:1}
    .bulb {fill-opacity:1;stroke:#000000;stroke-width:1px;stroke-linecap:butt;stroke-linejoin:miter;stroke-opacity:1}
    .bulb2 {fill-opacity:1;stroke:#000000;stroke-width:0.25;stroke-linecap:butt;stroke-linejoin:miter;stroke-opacity:1}
    .bulb3 {fill-opacity:1;stroke:none;filter:url(#filter3779-0-5)}
    .base {fill:#2b0000;fill-rule:evenodd;stroke:#000000;stroke-width:1px;stroke-linecap:butt;stroke-linejoin:miter;stroke-opacity:1}
    .bow {fill:#ff0000;fill-rule:evenodd;stroke:#000000;stroke-width:1px;stroke-linecap:butt;stroke-linejoin:miter;stroke-opacity:1}
  ]]>
  </style>

  <defs>
    <symbol id="needle1" overflow="visible">
      <path d="m 0,0 -2.125105,-9.25653 -5.385113,-60.0594 5.231503,-6.6542 3.313678,8.06797 4.790826,60.65367 z" />
    </symbol>
    <symbol id="needle2" overflow="visible">
      <path d="m 0,0 -9.412864,-1.26384 -60.300109,0.16712 -6.144289,5.82189 8.338766,2.55685 60.837135,-0.81361 z" />
    </symbol>
    
    <symbol id="bud" overflow="visible">
      <path class="bud" style="stroke-width:1.19479823px;" d="m 307.07097,350.73583 c 0,0 -16.95591,18.62408 -16.04346,29.89715 0.7598,9.38714 17.18945,22.42285 17.18945,22.42285 0,0 13.53784,-14.54659 13.75156,-23.66858 0.25213,-10.7614 -14.89755,-28.65142 -14.89755,-28.65142 z" />
      <path class="bud" d="m 298.67037,369.8167 -5.00533,12.581 5.36286,9.43575 4.29029,-9.95996 z" />
      <path class="bud" d="m 306.67037,369.8167 -5.00533,12.581 5.36286,9.43575 4.29029,-9.95996 z" />
      <path class="bud" d="m 314.67037,369.8167 -5.00533,12.581 5.36286,9.43575 4.29029,-9.95996 z" />
      <path class="bud" d="m 302.67037,359.8167 -5.00533,12.581 5.36286,9.43575 4.29029,-9.95996 z" />
      <path class="bud" d="m 312.67037,359.8167 -5.00533,12.581 5.36286,9.43575 4.29029,-9.95996 z" />
      <path class="bud" d="m 307.67037,351.8167 -5.00533,12.581 5.36286,9.43575 4.29029,-9.95996 z" />
    </symbol>
    
    <symbol id="branch" overflow="visible">
      <path class="stick" d="m 142.11913,495.38896 12.30846,192.87417 10.40872,-2.67079 -14.15809,-189.58492 z" />

      <g id="stem">
        <path class="stick" d="M 19.946972,473.79553 162.38698,604.42015 168.04684,595.28556 26.550151,468.31478 Z" />
           
        <use x="59.722182" y="505.90068" xlink:href="#needle1" class="needle" />
        <use x="32.722182" y="481.90068" xlink:href="#needle1" class="needle" />
        <use x="44.722182" y="491.90068" xlink:href="#needle1" class="needle" />
        <use x="101.72218" y="541.90068" xlink:href="#needle1" class="needle" />
        <use x="74.722182" y="517.90068" xlink:href="#needle1" class="needle" />
        <use x="86.722182" y="527.90068" xlink:href="#needle1" class="needle" />
        <use x="141.72218" y="579.90068" xlink:href="#needle1" class="needle" />
        <use x="114.72218" y="555.90068" xlink:href="#needle1" class="needle" />
        <use x="126.72218" y="565.90068" xlink:href="#needle1" class="needle" />
        <use x="152.72218" y="587.90068" xlink:href="#needle1" class="needle" />
        <use x="164.72218" y="597.90068" xlink:href="#needle1" class="needle" />
        <use x="60.1971" y="504.8372" xlink:href="#needle2" class="needle" />
        <use x="33.813266" y="480.16145" xlink:href="#needle2" class="needle" />
        <use x="44.875588" y="491.18982" xlink:href="#needle2" class="needle" />
        <use x="99.91093" y="543.34448" xlink:href="#needle2" class="needle" />
        <use x="73.527121" y="518.66872" xlink:href="#needle2" class="needle" />
        <use x="84.58943" y="529.69711" xlink:href="#needle2" class="needle" />
        <use x="141.43218" y="579.67613" xlink:href="#needle2" class="needle" />
        <use x="115.04832" y="555.00035" xlink:href="#needle2" class="needle" />
        <use x="126.11064" y="566.02873" xlink:href="#needle2" class="needle" />
        <use x="150.41092" y="589.89288" xlink:href="#needle2" class="needle" />
        <use x="161.47324" y="600.92127" xlink:href="#needle2" class="needle" />
        
        <g transform="matrix(0.56611236,-0.32684513,0.32684513,0.56611236,-280.12923,347.62106)">
          <use xlink:href="#bud" />
        </g>
        <g transform="matrix(0.12437171,-0.46416153,0.46416153,0.12437171,-199.27865,567.36569)">
          <use xlink:href="#bud" />
        </g>
        <g transform="matrix(0.48053538,0,0,0.48053538,-118.70505,281.38208)">
          <use xlink:href="#bud" />
        </g>
      </g>
      
      <g transform="matrix(0.25881904,0.96592583,-0.96592583,0.25881904,692.11739,289.51198)">
        <use xlink:href="#stem" />
      </g>  
      <g transform="matrix(0.70710678,0.70710679,-0.70710679,0.70710678,453.01559,-32.952551)">
        <use xlink:href="#stem" />
      </g>  
      <path class="stick" d="m 154.11913,649.38896 12.30846,192.87417 10.40872,-2.67079 -14.15809,-189.58492 z"/>
      <g transform="translate(4,148)">
        <use xlink:href="#stem" />
      </g>  
      <g transform="matrix(0.25881904,0.96592583,-0.96592583,0.25881904,696.11739,437.51198)">
        <use xlink:href="#stem" />
      </g>  
      <g transform="translate(15,275)">
        <use xlink:href="#stem" />
      </g>  
      <g transform="matrix(0.25881904,0.96592583,-0.96592583,0.25881904,707.11739,564.51198)">
        <use xlink:href="#stem" />
      </g>  
      <path class="stick" d="m 164.11913,786.38896 12.30846,192.87417 10.40872,-2.67079 -14.15809,-189.58492 z" />
    </symbol>

    <symbol id="bulb" overflow="visible">
      <path class="bulb" d="m 340.25924,922.36218 c 2.47832,4.01001 5.64479,8.19601 10,10 3.0796,1.27561 6.9204,1.27561 10,0 4.35521,-1.80399 7.52168,-5.98999 10,-10 11.08339,-17.93329 16.62306,-39.19037 20,-60 1.06788,-6.58058 1.53169,-13.51167 0,-20 -1.71248,-7.25417 -5.64183,-13.95336 -10,-20 -2.75635,-3.82423 -10,-10 -10,-10 l -30,0 c 0,0 -4.12931,4.6243 -8.69396,10.68645 -4.56465,6.06214 -9.56465,13.56214 -11.30604,19.31355 -1.93189,6.38061 -1.06788,13.41942 0,20 3.37694,20.80963 8.91661,42.06671 20,60 z" />
      <path class="bulb2" d="m 340,922.36218 c 2.47832,4.01001 5.64479,8.19601 10,10 3.0796,1.27561 6.9204,1.27561 10,0 4.35521,-1.80399 7.52168,-5.98999 10,-10 11.08339,-17.93329 16.62306,-39.19037 20,-60 1.06788,-6.58058 1.53169,-13.51167 0,-20 -1.71248,-7.25417 -5.64183,-13.95336 -10,-20 -2.75635,-3.82423 -10,-10 -10,-10 l -30,0 c 0,0 -4.12931,4.6243 -8.69396,10.68645 -4.56465,6.06214 -9.56465,13.56214 -11.30604,19.31355 -1.93189,6.38061 -1.06788,13.41942 0,20 3.37694,20.80963 8.91661,42.06671 20,60 z" />
    </symbol>
    
    <symbol id="yellowbulb" overflow="visible">
      <g transform="matrix(-0.10527765,0.24289536,-0.24289536,-0.10527765,-502.48795,907.25276)">
        <g style="opacity:0.32142855;fill:#000000;filter:url(#filter4121-6)" transform="matrix(0.41017883,0.91200511,-0.91200511,0.41017883,959.66656,-138.46509)">
          <use xlink:href="#bulb" />
          <path class="bulb3" d="m 310,522.36218 c -7.45356,0 -8.28752,12.74583 -10,20 -1.53169,6.48833 -1.06788,13.41942 0,20 1.68847,10.40482 -0.54093,30 10,30 10.54093,0 8.31153,-19.59518 10,-30 1.06788,-6.58058 1.53169,-13.51167 0,-20 -1.71248,-7.25417 -2.54644,-20 -10,-20 z"
             transform="matrix(0.47523878,0.6317036,-0.28043038,0.37492629,345.51496,428.98342)" />
        </g>
        <g style="opacity:0.74107139;fill:#ffffff" transform="matrix(0.41017883,0.91200511,-0.91200511,0.41017883,961.66656,-142.46509)" >
          <use xlink:href="#bulb" />
          <path class="bulb3" d="m 310,522.36218 c -7.45356,0 -8.28752,12.74583 -10,20 -1.53169,6.48833 -1.06788,13.41942 0,20 1.68847,10.40482 -0.54093,30 10,30 10.54093,0 8.31153,-19.59518 10,-30 1.06788,-6.58058 1.53169,-13.51167 0,-20 -1.71248,-7.25417 -2.54644,-20 -10,-20 z"
             transform="matrix(0.47523878,0.6317036,-0.28043038,0.37492629,345.51496,428.98342)" />
        </g>
        <g style="opacity:0.74107139;fill:#ffff00;" transform="matrix(0.41017883,0.91200511,-0.91200511,0.41017883,961.66656,-142.46509)">
          <use xlink:href="#bulb" />
          <path class="bulb3" style="fill:#ffffff;" d="m 310,522.36218 c -7.45356,0 -8.28752,12.74583 -10,20 -1.53169,6.48833 -1.06788,13.41942 0,20 1.68847,10.40482 -0.54093,30 10,30 10.54093,0 8.31153,-19.59518 10,-30 1.06788,-6.58058 1.53169,-13.51167 0,-20 -1.71248,-7.25417 -2.54644,-20 -10,-20 z"
             transform="matrix(0.47523878,0.6317036,-0.28043038,0.37492629,345.51496,428.98342)" />
        </g>
      </g>
      <path class="base" d="m -675.2082,941.30756 17.55277,0 -2.85742,2.44922 0,12.24611 -5.30665,0.81641 -6.53127,-1.29464 -0.4082,-11.35968 z" />
    </symbol>

    <symbol id="redbulb" overflow="visible">
      <g transform="matrix(-0.45853148,0.00626513,-0.00626513,-0.45853148,-505.37651,1298.6884)" style="opacity:0.32142855;fill:#000000;filter:url(#filter4121-6)">
        <use xlink:href="#bulb" />
        <path class="bulb3" style="fill:#000000;" d="m 310,522.36218 c -7.45356,0 -8.28752,12.74583 -10,20 -1.53169,6.48833 -1.06788,13.41942 0,20 1.68847,10.40482 -0.54093,30 10,30 10.54093,0 8.31153,-19.59518 10,-30 1.06788,-6.58058 1.53169,-13.51167 0,-20 -1.71248,-7.25417 -2.54644,-20 -10,-20 z"
           transform="matrix(0.47523878,0.6317036,-0.28043038,0.37492629,345.51496,428.98342)" />
      </g>
      <g style="opacity:0.74107139;fill:#ffffff" transform="matrix(-0.45853148,0.00626513,-0.00626513,-0.45853148,-504.05823,1300.2594)">
        <use xlink:href="#bulb" />
        <path class="bulb3" style="fill:#ffffff;" d="m 310,522.36218 c -7.45356,0 -8.28752,12.74583 -10,20 -1.53169,6.48833 -1.06788,13.41942 0,20 1.68847,10.40482 -0.54093,30 10,30 10.54093,0 8.31153,-19.59518 10,-30 1.06788,-6.58058 1.53169,-13.51167 0,-20 -1.71248,-7.25417 -2.54644,-20 -10,-20 z"
           transform="matrix(0.47523878,0.6317036,-0.28043038,0.37492629,345.51496,428.98342)" />
      </g>
      <g style="fill:#ff0000;fill-opacity:1;stroke:#000000;stroke-linecap:butt;stroke-linejoin:miter;stroke-opacity:1">
        <path style="stroke-width:0.45857427px;" d="m -665.85652,879.45907 c -1.16151,-1.82319 -2.63966,-3.72276 -4.64797,-4.52266 -1.42008,-0.56561 -3.18121,-0.54155 -4.58531,0.0626 -1.9857,0.85447 -3.4114,2.79372 -4.52267,4.64797 -4.96973,8.29241 -7.37666,18.07416 -8.79472,27.63719 -0.44843,3.02409 -0.61767,6.20512 0.1253,9.17063 0.83068,3.31553 2.67438,6.36271 4.71062,9.10798 1.28783,1.73626 4.64797,4.52266 4.64797,4.52266 l 13.75594,-0.18795 c 0,0 1.86445,-2.14626 3.9195,-4.95455 2.05506,-2.80828 4.30073,-6.27859 5.06318,-8.9267 0.84586,-2.93782 0.40558,-6.15992 -0.1253,-9.17063 -1.67881,-9.52071 -4.3521,-19.23305 -9.54654,-27.38659 z" />
        <path style="stroke-width:0.11464357;" d="m -665.73765,879.45745 c -1.16151,-1.82319 -2.63967,-3.72276 -4.64797,-4.52266 -1.42008,-0.56562 -3.18121,-0.54155 -4.58531,0.0626 -1.9857,0.85447 -3.4114,2.79372 -4.52267,4.64796 -4.96973,8.29242 -7.37666,18.07417 -8.79472,27.63719 -0.44843,3.0241 -0.61767,6.20513 0.1253,9.17063 0.83068,3.31554 2.67438,6.36271 4.71062,9.10798 1.28783,1.73626 4.64797,4.52267 4.64797,4.52267 l 13.75594,-0.18796 c 0,0 1.86445,-2.14626 3.9195,-4.95454 2.05506,-2.80828 4.30073,-6.27859 5.06318,-8.92671 0.84585,-2.93781 0.40558,-6.15991 -0.1253,-9.17063 -1.67881,-9.52071 -4.3521,-19.23304 -9.54654,-27.38658 z" />
      </g>
      <path class="bulb3" style="fill:#ffffff;" d="m 310,522.36218 c -7.45356,0 -8.28752,12.74583 -10,20 -1.53169,6.48833 -1.06788,13.41942 0,20 1.68847,10.40482 -0.54093,30 10,30 10.54093,0 8.31153,-19.59518 10,-30 1.06788,-6.58058 1.53169,-13.51167 0,-20 -1.71248,-7.25417 -2.54644,-20 -10,-20 z"
         transform="matrix(-0.22186965,-0.28667855,0.1262372,-0.17367244,-665.17535,1105.7217)" />
      <path class="base" d="m -687.81826,928.64569 30.40559,0 -4.94974,4.24264 0,21.2132 -9.19239,1.41421 -11.31371,-2.24263 -0.70711,-19.67768 z" />
    </symbol>

    <symbol id="bluebulb" overflow="visible">
      <g transform="matrix(-0.45853148,0.00626513,-0.00626513,-0.45853148,-446.68665,1298.6884)" style="opacity:0.32142855;fill:#000000;filter:url(#filter4121-6)">
        <use xlink:href="#bulb" />
        <path class="bulb3" style="fill:#000000;" d="m 310,522.36218 c -7.45356,0 -8.28752,12.74583 -10,20 -1.53169,6.48833 -1.06788,13.41942 0,20 1.68847,10.40482 -0.54093,30 10,30 10.54093,0 8.31153,-19.59518 10,-30 1.06788,-6.58058 1.53169,-13.51167 0,-20 -1.71248,-7.25417 -2.54644,-20 -10,-20 z"
           transform="matrix(0.47523878,0.6317036,-0.28043038,0.37492629,345.51496,428.98342)" />
      </g>
      <g transform="matrix(-0.45853148,0.00626513,-0.00626513,-0.45853148,-445.36837,1300.2594)" style="opacity:0.74107139;fill:#ffffff">
        <use xlink:href="#bulb" />
        <path class="bulb3" style="fill:#000000;" d="m 310,522.36218 c -7.45356,0 -8.28752,12.74583 -10,20 -1.53169,6.48833 -1.06788,13.41942 0,20 1.68847,10.40482 -0.54093,30 10,30 10.54093,0 8.31153,-19.59518 10,-30 1.06788,-6.58058 1.53169,-13.51167 0,-20 -1.71248,-7.25417 -2.54644,-20 -10,-20 z"
           transform="matrix(0.47523878,0.6317036,-0.28043038,0.37492629,345.51496,428.98342)" />
      </g>
      <g style="fill:#0000ff;fill-opacity:1;stroke:#000000;stroke-linecap:butt;stroke-linejoin:miter;stroke-opacity:1">
        <path style="stroke-width:0.45857427px;" d="m -607.16666,879.45907 c -1.16151,-1.82319 -2.63966,-3.72276 -4.64797,-4.52266 -1.42008,-0.56561 -3.18121,-0.54155 -4.58531,0.0626 -1.9857,0.85447 -3.4114,2.79372 -4.52267,4.64797 -4.96973,8.29241 -7.37666,18.07416 -8.79472,27.63719 -0.44843,3.02409 -0.61767,6.20512 0.1253,9.17063 0.83068,3.31553 2.67438,6.36271 4.71062,9.10798 1.28783,1.73626 4.64797,4.52266 4.64797,4.52266 l 13.75594,-0.18795 c 0,0 1.86445,-2.14626 3.9195,-4.95455 2.05506,-2.80828 4.30073,-6.27859 5.06318,-8.9267 0.84586,-2.93782 0.40558,-6.15992 -0.1253,-9.17063 -1.67881,-9.52071 -4.3521,-19.23305 -9.54654,-27.38659 z" />
        <path style="stroke-width:0.11464357;" d="m -607.04779,879.45745 c -1.16151,-1.82319 -2.63967,-3.72276 -4.64797,-4.52266 -1.42008,-0.56562 -3.18121,-0.54155 -4.58531,0.0626 -1.9857,0.85447 -3.4114,2.79372 -4.52267,4.64796 -4.96973,8.29242 -7.37666,18.07417 -8.79472,27.63719 -0.44843,3.0241 -0.61767,6.20513 0.1253,9.17063 0.83068,3.31554 2.67438,6.36271 4.71062,9.10798 1.28783,1.73626 4.64797,4.52267 4.64797,4.52267 l 13.75594,-0.18796 c 0,0 1.86445,-2.14626 3.9195,-4.95454 2.05506,-2.80828 4.30073,-6.27859 5.06318,-8.92671 0.84585,-2.93781 0.40558,-6.15991 -0.1253,-9.17063 -1.67881,-9.52071 -4.3521,-19.23304 -9.54654,-27.38658 z" />
      </g>
      <path class="bulb3" style="fill:#ffffff;" d="m 310,522.36218 c -7.45356,0 -8.28752,12.74583 -10,20 -1.53169,6.48833 -1.06788,13.41942 0,20 1.68847,10.40482 -0.54093,30 10,30 10.54093,0 8.31153,-19.59518 10,-30 1.06788,-6.58058 1.53169,-13.51167 0,-20 -1.71248,-7.25417 -2.54644,-20 -10,-20 z"
         transform="matrix(-0.22186965,-0.28667855,0.1262372,-0.17367244,-606.48549,1105.7217)" />
      <path class="base" d="m -629.1284,928.64569 30.40559,0 -4.94974,4.24264 0,21.2132 -9.19239,1.41421 -11.31371,-2.24263 -0.70711,-19.67768 z" />
    </symbol>

    <symbol id="bowloop" overflow="visible">
      <path class="bow" style="stroke-width:1px;" d="m -1076.6939,-862.96409 c 0,0 -74.3236,39.14343 -153.7747,55.43153 -70.7263,14.4994 -147.9296,8.0592 -216,-16 -79.5073,-28.1016 -128.8041,-234.50964 -128.8041,-234.50964 l 26.1766,-203.3136 c 0,0 119.9316,242.7388 202.6275,281.82337 88.469,41.8131 269.7747,116.56834 269.7747,116.56834 z" />
      <path class="bow" style="stroke-width:0.94547331px;" d="m -1097.3928,-848.29782 c 0,0 -25.8077,-164.26698 -65.7245,-231.97878 -35.5335,-60.276 -88.3933,-110.3235 -146.6162,-141.4504 -68.0053,-36.3569 -256.3934,-50.921 -256.3934,-50.921 l -6.5047,231.9775 c 0,0 150.5467,-30.8442 227.5079,0 82.334,32.9975 247.7309,192.37268 247.7309,192.37268 z" />
    </symbol>
  </defs>
  
  <g transform="translate(615,1087)">
  
    <!-- wreath -->
    <g id="g22376" transform="matrix(-0.35257896,0.93578207,-0.93578207,-0.35257896,89.789673,-527.97786)">
      <g transform="translate(1832.8208,-407.29351)">
        <g id="branches">
          <g id="g4932" transform="matrix(0.96592583,-0.25881905,0.25881905,0.96592583,-2488.2364,-213.80157)">
            <use xlink:href="#branch" />
          </g>
          <g id="g5804" transform="matrix(0.86602541,0.50000001,-0.50000001,0.86602541,-1935.7914,-712.64097)">
            <use xlink:href="#branch" />
          </g>
          <g id="g6676" transform="matrix(0.25881904,0.96592583,-0.96592583,0.25881904,-1157.9251,-669.73809)">
            <use xlink:href="#branch" />
          </g>
          <g id="g7548" transform="matrix(-0.50000001,0.86602541,-0.86602541,-0.50000001,-683.72185,-159.99601)">
            <use xlink:href="#branch" />
          </g>
          <g id="g8420" transform="matrix(-0.96592583,0.25881905,-0.25881905,-0.96592583,-723.51975,615.86151)">
            <use xlink:href="#branch" />
          </g>
          <g id="g9292" transform="matrix(-0.86602541,-0.50000001,0.50000001,-0.86602541,-1278.5166,1107.0353)">
            <use xlink:href="#branch" />
          </g>
          <g id="g10164" transform="matrix(-0.25881905,-0.96592583,0.96592583,-0.25881905,-2048.7173,1063.9236)">
            <use xlink:href="#branch" />
          </g>
          <g id="g11036" transform="matrix(0.70710678,-0.70710679,0.70710679,0.70710678,-2454.0168,300.36104)">
            <use xlink:href="#branch" />
          </g>
        </g>
      </g>
      <g id="g15398" transform="matrix(0.70710678,-0.70710679,-0.70710679,-0.70710678,1485.2654,-1246.7997)">
        <use xlink:href="#branches" />
      </g>
    </g>

    <!-- bulbs -->
    <g id="g33866" transform="matrix(2.9875062,0,0,2.9875062,2200.614,-3769.9768)">
      <use xlink:href="#yellowbulb" />       
    </g>
    <g id="g33962" transform="matrix(2.5872563,-1.4937531,1.4937531,2.5872563,164.65673,-4286.1498)">
      <use xlink:href="#yellowbulb" />       
    </g>
    <g id="g34058" transform="matrix(1.4937531,-2.5872563,2.5872563,1.4937531,-1856.6205,-3715.1901)">
      <use xlink:href="#yellowbulb" />       
    </g>
    <g id="g34154" transform="matrix(-1.8418243e-8,-2.9875062,2.9875062,-1.8418243e-8,-3321.6181,-2210.0859)">
      <use xlink:href="#yellowbulb" />       
    </g>
    <g id="g34250" transform="matrix(-1.4937531,-2.5872563,2.5872563,-1.4937531,-3837.7911,-174.12861)">
      <use xlink:href="#yellowbulb" />       
    </g>
    <g id="g34346" transform="matrix(-2.5872563,-1.4937531,1.4937531,-2.5872563,-3266.8314,1847.1486)">
      <use xlink:href="#yellowbulb" />       
    </g>
    <g id="g34442" transform="matrix(-2.5872563,-1.4937531,-1.4937531,2.5872563,220.04208,-4269.1792)">
      <use xlink:href="#yellowbulb" />       
    </g>
    <g id="g34538" transform="matrix(-1.4937531,-2.5872563,-2.5872563,1.4937531,2241.3193,-3698.2195)">
      <use xlink:href="#yellowbulb" />       
    </g>
    <g id="g34634" transform="matrix(1.8418243e-8,-2.9875062,-2.9875062,-1.8418243e-8,3706.3169,-2193.1153)">
      <use xlink:href="#yellowbulb" />       
    </g>
    <g id="g34730" transform="matrix(1.4937531,-2.5872563,-2.5872563,-1.4937531,4222.4899,-157.15805)">
      <use xlink:href="#yellowbulb" />       
    </g>
    <g id="g34826" transform="matrix(2.5872563,-1.4937531,-1.4937531,-2.5872563,3651.5302,1864.1192)">
      <use xlink:href="#yellowbulb" />       
    </g>

    <g id="g34922" transform="matrix(1.6658839,-0.44637224,0.44637224,1.6658839,754.69352,-2693.3145)">
      <use xlink:href="#redbulb" />       
    </g>
    <g id="g35014" transform="matrix(1.2195117,-1.2195116,1.2195116,1.2195117,-539.79984,-2629.572)">
      <use xlink:href="#redbulb" />       
    </g>
    <g id="g35106" transform="matrix(0.44637231,-1.6658839,1.6658839,0.44637231,-1628.9927,-1927.1227)">
      <use xlink:href="#redbulb" />       
    </g>
    <g id="g35198" transform="matrix(-0.44637219,-1.6658839,1.6658839,-0.44637219,-2221.0368,-774.18731)">
      <use xlink:href="#redbulb" />       
    </g>
    <g id="g35290" transform="matrix(-1.2195116,-1.2195117,1.2195117,-1.2195116,-2157.2943,520.30607)">
      <use xlink:href="#redbulb" />       
    </g>
    <g id="g35382" transform="matrix(-1.6658839,-0.44637231,0.44637231,-1.6658839,-1454.845,1609.499)">
      <use xlink:href="#redbulb" />       
    </g>
    <g id="g35474" transform="matrix(-1.6658839,-0.44637224,-0.44637224,1.6658839,-321.3196,-2698.9714)">
      <use xlink:href="#redbulb" />       
    </g>
    <g id="g35566" transform="matrix(-1.2195117,-1.2195116,-1.2195116,1.2195117,973.17379,-2635.2289)">
      <use xlink:href="#redbulb" />       
    </g>
    <g id="g35658" transform="matrix(-0.44637231,-1.6658839,-1.6658839,0.44637231,2062.3667,-1932.7796)">
      <use xlink:href="#redbulb" />       
    </g>
    <g id="g35750" transform="matrix(0.44637219,-1.6658839,-1.6658839,-0.44637219,2654.4108,-779.84416)">
      <use xlink:href="#redbulb" />       
    </g>
    <g id="g35842" transform="matrix(1.2195116,-1.2195117,-1.2195117,-1.2195116,2590.6683,514.64922)">
      <use xlink:href="#redbulb" />       
    </g>
    <g id="g35934" transform="matrix(1.6658839,-0.44637231,-0.44637231,-1.6658839,1888.219,1603.8421)">
      <use xlink:href="#redbulb" />       
    </g>
    
    <g id="g36026" transform="matrix(1.7246499,0,0,1.7246499,1252.1688,-2378.3838)">
      <use xlink:href="#bluebulb" />       
    </g>
    <g id="g36118" transform="matrix(1.4935906,-0.86232495,0.86232495,1.4935906,45.379325,-2617.1873)">
      <use xlink:href="#bluebulb" />       
    </g>
    <g id="g36210" transform="matrix(0.86232493,-1.4935906,1.4935906,0.86232493,-1119.1328,-2220.6025)">
      <use xlink:href="#bluebulb" />       
    </g>
    <g id="g36302" transform="matrix(0,-1.7246499,1.7246499,0,-1929.3375,-1294.8939)">
      <use xlink:href="#bluebulb" />       
    </g>
    <g id="g36394" transform="matrix(-0.86232495,-1.4935906,1.4935906,-0.86232495,-2168.141,-88.104383)">
      <use xlink:href="#bluebulb" />       
    </g>
    <g id="g36486" transform="matrix(-1.4935906,-0.86232493,0.86232493,-1.4935906,-1771.5561,1076.4077)">
      <use xlink:href="#bluebulb" />       
    </g>
    <g id="g36578" transform="matrix(-1.7246499,0,0,-1.7246499,-845.8475,1886.6123)">
      <use xlink:href="#bluebulb" />       
    </g>
    <g id="g36762" transform="matrix(-1.4935906,-0.86232495,-0.86232495,1.4935906,394.80356,-2605.8736)">
      <use xlink:href="#bluebulb" />       
    </g>
    <g id="g36854" transform="matrix(-0.86232493,-1.4935906,-1.4935906,0.86232493,1559.3157,-2209.2888)">
      <use xlink:href="#bluebulb" />       
    </g>
    <g id="g36946" transform="matrix(0,-1.7246499,-1.7246499,0,2369.5204,-1283.5802)">
      <use xlink:href="#bluebulb" />       
    </g>
    <g id="g37038" transform="matrix(0.86232495,-1.4935906,-1.4935906,-0.86232495,2608.3239,-76.790675)">
      <use xlink:href="#bluebulb" />       
    </g>
    <g id="g37130" transform="matrix(1.4935906,-0.86232493,-0.86232493,-1.4935906,2211.739,1087.7214)">
      <use xlink:href="#bluebulb" />       
    </g>
    <g id="g37222" transform="matrix(1.7246499,0,0,-1.7246499,1286.0304,1897.926)" style="display:none;">
      <use xlink:href="#bluebulb" />       
    </g>

    <!-- bow -->
    <g transform="matrix(-0.24971129,0.61490367,0.61490367,0.24971129,472.88105,199.30441)">
      <use xlink:href="#bowloop" />
    </g>
    <path class="bow" style="stroke-width:0.74696207px;" d="m 225.08836,-710.30292 c 195.42745,196.30748 153.7326,112.36209 193.4847,189.05704 30.91753,59.65018 28.5071,198.29312 28.5071,198.29312 l -68.29312,-71.06744 -80.69445,103.21755 c 0,0 24.32615,-137.32894 1.0065,-198.43028 -29.29951,-76.76962 -169.53754,-191.58815 -169.53754,-191.58815 l 112.936,-38.03211 z" />
    <path class="bow" style="stroke-width:0.75131816px;" d="M 199.27321,-696.81948 C 59.696738,-456.62469 78.461463,-548.4996 59.696734,-464.13078 c -14.594419,65.61862 24.064929,198.91132 24.064929,198.91132 l 48.129777,-86.32001 105.88559,78.81392 c 0,0 -59.73227,-126.35138 -52.94279,-191.40523 8.53051,-81.73567 115.51156,-228.93567 115.51156,-228.93567 l -120.3245,-7.50609 z" />
    <g transform="matrix(-0.6636733,0,0,0.6636733,-501.67251,-59.546305)">
      <use xlink:href="#bowloop" />
    </g>
    <g transform="matrix(0.64105918,-0.17177129,0.17177129,0.64105918,1082.1125,-270.66423)">
      <use xlink:href="#bowloop" />
    </g>
    <g transform="matrix(0.6636733,0,0,0.6636733,956.75169,-80.008025)">
      <use xlink:href="#bowloop" />
    </g>
    <g transform="matrix(-0.57475794,0.33183666,0.33183666,0.57475794,-110.25287,222.80492)">
      <use xlink:href="#bowloop" />
    </g>
  </g>
</svg>
