<svg width="100" height="100" viewBox="0 0 1630 1630" xmlns="http://www.w3.org/2000/svg" xmlns:xlink="http://www.w3.org/1999/xlink"><style>.s0{fill:#000;filter:url(#filter4121-6);opacity:0;}.s1{fill:#fff;opacity:1;}</style><title>Christmas Wreath</title><desc>
    Reworked Algot Runemn's excellent work https://openclipart.org/detail/234112/christmas-wreath-2015
    Reduced the file size (less than 1% of original) and made it easier to hand edit
    
    Jay Nick
    steamcoded.org
  </desc><defs><filter id="filter4121-6" color-interpolation-filters="sRGB"><feGaussianBlur id="feGaussianBlur4123-2" stdDeviation="1"/></filter><filter id="filter3779-0-5" x="0" y="0" width="1" height="1" color-interpolation-filters="sRGB"><feGaussianBlur id="feGaussianBlur3781-7-1" stdDeviation="2"/></filter><filter id="filter3845-6-5" color-interpolation-filters="sRGB"><feGaussianBlur id="feGaussianBlur3847-1-3" stdDeviation="0"/></filter><filter id="filter3849-0-9" color-interpolation-filters="sRGB"><feGaussianBlur id="feGaussianBlur3851-3-4" stdDeviation="0"/></filter><filter id="filter3853-0-0" color-interpolation-filters="sRGB"><feGaussianBlur id="feGaussianBlur3855-4-2" stdDeviation="0"/></filter></defs><style type="text/css">
    .needle {fill:#008000;fill-rule:evenodd;stroke:#000000;stroke-width:0.92826509px;stroke-linecap:butt;stroke-linejoin:miter;stroke-opacity:1}
    .stick {fill:#550000;fill-rule:evenodd;stroke:#000000;stroke-width:0.92826509px;stroke-linecap:butt;stroke-linejoin:miter;stroke-opacity:1}
    .bud {fill:#d40000;fill-rule:evenodd;stroke:#000000;stroke-width:0.432917px;stroke-linecap:butt;stroke-linejoin:miter;stroke-opacity:1}
    .bulb {fill-opacity:1;stroke:#000000;stroke-width:1px;stroke-linecap:butt;stroke-linejoin:miter;stroke-opacity:1}
    .bulb2 {fill-opacity:1;stroke:#000000;stroke-width:0.25;stroke-linecap:butt;stroke-linejoin:miter;stroke-opacity:1}
    .bulb3 {fill-opacity:1;stroke:none;filter:url(#filter3779-0-5)}
    .base {fill:#2b0000;fill-rule:evenodd;stroke:#000000;stroke-width:1px;stroke-linecap:butt;stroke-linejoin:miter;stroke-opacity:1}
    .bow {fill:#ff0000;fill-rule:evenodd;stroke:#000000;stroke-width:1px;stroke-linecap:butt;stroke-linejoin:miter;stroke-opacity:1}
  </style><defs><symbol id="needle1" overflow="visible"><path d="m0 0-2-9-5-60 5-7 3 8 5 61z"/></symbol><symbol id="needle2" overflow="visible"><path d="m0 0-9-1-60 0-6 6 8 3 61-1z"/></symbol><symbol id="bud" overflow="visible"><path class="bud" d="m307 351c0 0-17 19-16 30 1 9 17 22 17 22 0 0 14-15 14-24 0-11-15-29-15-29zM299 370l-5 13 5 9 4-10M299 370l-5 13 5 9 4-10M299 370l-5 13 5 9 4-10zM307 370l-5 13 5 9 4-10M307 370l-5 13 5 9 4-10zM315 370l-5 13 5 9 4-10zM303 360l-5 13 5 9 4-10zM313 360l-5 13 5 9 4-10zM308 352l-5 13 5 9 4-10z" stroke-width="1"/></symbol><symbol id="branch" overflow="visible"><path class="stick" d="m142 495 12 193 10-3-14-190z"/><g id="stem"><path class="stick" d="M20 474 162 604 168 595 27 468Z"/><use x="60" y="506" xlink:href="#needle1" class="needle"/><use x="33" y="482" xlink:href="#needle1" class="needle"/><use x="45" y="492" xlink:href="#needle1" class="needle"/><use x="102" y="542" xlink:href="#needle1" class="needle"/><use x="75" y="518" xlink:href="#needle1" class="needle"/><use x="87" y="528" xlink:href="#needle1" class="needle"/><use x="142" y="580" xlink:href="#needle1" class="needle"/><use x="115" y="556" xlink:href="#needle1" class="needle"/><use x="127" y="566" xlink:href="#needle1" class="needle"/><use x="153" y="588" xlink:href="#needle1" class="needle"/><use x="165" y="598" xlink:href="#needle1" class="needle"/><use x="60" y="505" xlink:href="#needle2" class="needle"/><use x="34" y="480" xlink:href="#needle2" class="needle"/><use x="45" y="491" xlink:href="#needle2" class="needle"/><use x="100" y="543" xlink:href="#needle2" class="needle"/><use x="74" y="519" xlink:href="#needle2" class="needle"/><use x="85" y="530" xlink:href="#needle2" class="needle"/><use x="141" y="580" xlink:href="#needle2" class="needle"/><use x="115" y="555" xlink:href="#needle2" class="needle"/><use x="126" y="566" xlink:href="#needle2" class="needle"/><use x="150" y="590" xlink:href="#needle2" class="needle"/><use x="161" y="601" xlink:href="#needle2" class="needle"/><g transform="matrix(0.56611236,-0.32684513,0.32684513,0.56611236,-280.12923,347.62106)"><use xlink:href="#bud"/></g><g transform="matrix(0.12437171,-0.46416153,0.46416153,0.12437171,-199.27865,567.36569)"><use xlink:href="#bud"/></g><g transform="matrix(0.48053538,0,0,0.48053538,-118.70505,281.38208)"><use xlink:href="#bud"/></g></g><g transform="matrix(0.25881904,0.96592583,-0.96592583,0.25881904,692.11739,289.51198)"><use xlink:href="#stem"/></g><g transform="matrix(0.70710678,0.70710679,-0.70710679,0.70710678,453.01559,-32.952551)"><use xlink:href="#stem"/></g><path class="stick" d="m154 649 12 193 10-3-14-190z"/><g transform="translate(4,148)"><use xlink:href="#stem"/></g><g transform="matrix(0.25881904,0.96592583,-0.96592583,0.25881904,696.11739,437.51198)"><use xlink:href="#stem"/></g><g transform="translate(15,275)"><use xlink:href="#stem"/></g><g transform="matrix(0.25881904,0.96592583,-0.96592583,0.25881904,707.11739,564.51198)"><use xlink:href="#stem"/></g><path class="stick" d="m164 786 12 193 10-3-14-190z"/></symbol><symbol id="bulb" overflow="visible"><path class="bulb" d="m340 922c2 4 6 8 10 10 3 1 7 1 10 0 4-2 8-6 10-10 11-18 17-39 20-60 1-7 2-14 0-20-2-7-6-14-10-20-3-4-10-10-10-10l-30 0c0 0-4 5-9 11-5 6-10 14-11 19-2 6-1 13 0 20 3 21 9 42 20 60zM340 922 340 922 340 922 340 922c2 4 6 8 10 10 3 1 7 1 10 0 4-2 8-6 10-10 11-18 17-39 20-60 1-7 2-14 0-20-2-7-6-14-10-20-3-4-10-10-10-10l-30 0c0 0-4 5-9 11-5 6-10 14-11 19-2 6-1 13 0 20 3 21 9 42 20 60z"/></symbol><symbol id="yellowbulb" overflow="visible"><g transform="matrix(-0.10527765,0.24289536,-0.24289536,-0.10527765,-502.48795,907.25276)"><g transform="matrix(0.41017883,0.91200511,-0.91200511,0.41017883,959.66656,-138.46509)" class="s0"><use xlink:href="#bulb"/><path class="bulb3" d="m310 522c-7 0-8 13-10 20-2 6-1 13 0 20 2 10-1 30 10 30 11 0 8-20 10-30 1-7 2-14 0-20-2-7-3-20-10-20z" transform="matrix(0.47523878,0.6317036,-0.28043038,0.37492629,345.51496,428.98342)"/></g><g transform="matrix(0.41017883,0.91200511,-0.91200511,0.41017883,961.66656,-142.46509)" class="s1"><use xlink:href="#bulb"/><path class="bulb3" d="m310 522c-7 0-8 13-10 20-2 6-1 13 0 20 2 10-1 30 10 30 11 0 8-20 10-30 1-7 2-14 0-20-2-7-3-20-10-20z" transform="matrix(0.47523878,0.6317036,-0.28043038,0.37492629,345.51496,428.98342)"/></g><g transform="matrix(0.41017883,0.91200511,-0.91200511,0.41017883,961.66656,-142.46509)" style="fill:#ff0;opacity:1"><use xlink:href="#bulb"/><path class="bulb3" d="m310 522c-7 0-8 13-10 20-2 6-1 13 0 20 2 10-1 30 10 30 11 0 8-20 10-30 1-7 2-14 0-20-2-7-3-20-10-20z" transform="matrix(0.47523878,0.6317036,-0.28043038,0.37492629,345.51496,428.98342)" fill="#fff"/></g></g><path class="base" d="m-675 941 18 0-3 2 0 12-5 1-7-1 0-11z"/></symbol><symbol id="redbulb" overflow="visible"><g transform="matrix(-0.45853148,0.00626513,-0.00626513,-0.45853148,-505.37651,1298.6884)" class="s0"><use xlink:href="#bulb"/><path class="bulb3" d="m310 522c-7 0-8 13-10 20-2 6-1 13 0 20 2 10-1 30 10 30 11 0 8-20 10-30 1-7 2-14 0-20-2-7-3-20-10-20z" transform="matrix(0.47523878,0.6317036,-0.28043038,0.37492629,345.51496,428.98342)" fill="#000"/></g><g transform="matrix(-0.45853148,0.00626513,-0.00626513,-0.45853148,-504.05823,1300.2594)" class="s1"><use xlink:href="#bulb"/><path class="bulb3" d="m310 522c-7 0-8 13-10 20-2 6-1 13 0 20 2 10-1 30 10 30 11 0 8-20 10-30 1-7 2-14 0-20-2-7-3-20-10-20z" transform="matrix(0.47523878,0.6317036,-0.28043038,0.37492629,345.51496,428.98342)" fill="#fff"/></g><g style="fill:#f00;stroke:#000"><path d="m-666 879c-1-2-3-4-5-5-1-1-3-1-5 0-2 1-3 3-5 5-5 8-7 18-9 28 0 3-1 6 0 9 1 3 3 6 5 9 1 2 5 5 5 5l14 0c0 0 2-2 4-5 2-3 4-6 5-9 1-3 0-6 0-9-2-10-4-19-10-27zM-666 879 -666 879 -666 879c-1-2-3-4-5-5-1-1-3-1-5 0-2 1-3 3-5 5-5 8-7 18-9 28 0 3-1 6 0 9 1 3 3 6 5 9 1 2 5 5 5 5l14 0c0 0 2-2 4-5 2-3 4-6 5-9 1-3 0-6 0-9-2-10-4-19-10-27z" stroke-width="0"/></g><path class="bulb3" d="m310 522c-7 0-8 13-10 20-2 6-1 13 0 20 2 10-1 30 10 30 11 0 8-20 10-30 1-7 2-14 0-20-2-7-3-20-10-20zM-688 929l30 0-5 4 0 21-9 1-11-2-1-20M-688 929l30 0-5 4 0 21-9 1-11-2-1-20M-688 929l30 0-5 4 0 21-9 1-11-2-1-20z" transform="matrix(-0.22186965,-0.28667855,0.1262372,-0.17367244,-665.17535,1105.7217)" fill="#fff"/></symbol><symbol id="bluebulb" overflow="visible"><g transform="matrix(-0.45853148,0.00626513,-0.00626513,-0.45853148,-446.68665,1298.6884)" class="s0"><use xlink:href="#bulb"/><path class="bulb3" d="m310 522c-7 0-8 13-10 20-2 6-1 13 0 20 2 10-1 30 10 30 11 0 8-20 10-30 1-7 2-14 0-20-2-7-3-20-10-20z" transform="matrix(0.47523878,0.6317036,-0.28043038,0.37492629,345.51496,428.98342)" fill="#000"/></g><g transform="matrix(-0.45853148,0.00626513,-0.00626513,-0.45853148,-445.36837,1300.2594)" class="s1"><use xlink:href="#bulb"/><path class="bulb3" d="m310 522c-7 0-8 13-10 20-2 6-1 13 0 20 2 10-1 30 10 30 11 0 8-20 10-30 1-7 2-14 0-20-2-7-3-20-10-20z" transform="matrix(0.47523878,0.6317036,-0.28043038,0.37492629,345.51496,428.98342)" fill="#000"/></g><g style="fill:#00f;stroke:#000"><path d="m-607 879c-1-2-3-4-5-5-1-1-3-1-5 0-2 1-3 3-5 5-5 8-7 18-9 28 0 3-1 6 0 9 1 3 3 6 5 9 1 2 5 5 5 5l14 0c0 0 2-2 4-5 2-3 4-6 5-9 1-3 0-6 0-9-2-10-4-19-10-27zM-607 879 -607 879 -607 879c-1-2-3-4-5-5-1-1-3-1-5 0-2 1-3 3-5 5-5 8-7 18-9 28 0 3-1 6 0 9 1 3 3 6 5 9 1 2 5 5 5 5l14 0c0 0 2-2 4-5 2-3 4-6 5-9 1-3 0-6 0-9-2-10-4-19-10-27z" stroke-width="0"/></g><path class="bulb3" d="m310 522c-7 0-8 13-10 20-2 6-1 13 0 20 2 10-1 30 10 30 11 0 8-20 10-30 1-7 2-14 0-20-2-7-3-20-10-20zM-629 929l30 0-5 4 0 21-9 1-11-2-1-20M-629 929l30 0-5 4 0 21-9 1-11-2-1-20M-629 929l30 0-5 4 0 21-9 1-11-2-1-20z" transform="matrix(-0.22186965,-0.28667855,0.1262372,-0.17367244,-606.48549,1105.7217)" fill="#fff"/></symbol><symbol id="bowloop" overflow="visible"><path class="bow" d="m-1077-863c0 0-74 39-154 55-71 14-148 8-216-16-80-28-129-235-129-235l26-203c0 0 120 243 203 282 88 42 270 117 270 117zM-1097-848 -1097-848 -1097-848c0 0-26-164-66-232-36-60-88-110-147-141-68-36-256-51-256-51l-7 232c0 0 151-31 228 0 82 33 248 192 248 192z"/></symbol></defs><g transform="translate(615,1087)"><g id="g22376" transform="matrix(-0.35257896,0.93578207,-0.93578207,-0.35257896,89.789673,-527.97786)"><g transform="translate(1832.8208,-407.29351)"><g id="branches"><g id="g4932" transform="matrix(0.96592583,-0.25881905,0.25881905,0.96592583,-2488.2364,-213.80157)"><use xlink:href="#branch"/></g><g id="g5804" transform="matrix(0.86602541,0.50000001,-0.50000001,0.86602541,-1935.7914,-712.64097)"><use xlink:href="#branch"/></g><g id="g6676" transform="matrix(0.25881904,0.96592583,-0.96592583,0.25881904,-1157.9251,-669.73809)"><use xlink:href="#branch"/></g><g id="g7548" transform="matrix(-0.50000001,0.86602541,-0.86602541,-0.50000001,-683.72185,-159.99601)"><use xlink:href="#branch"/></g><g id="g8420" transform="matrix(-0.96592583,0.25881905,-0.25881905,-0.96592583,-723.51975,615.86151)"><use xlink:href="#branch"/></g><g id="g9292" transform="matrix(-0.86602541,-0.50000001,0.50000001,-0.86602541,-1278.5166,1107.0353)"><use xlink:href="#branch"/></g><g id="g10164" transform="matrix(-0.25881905,-0.96592583,0.96592583,-0.25881905,-2048.7173,1063.9236)"><use xlink:href="#branch"/></g><g id="g11036" transform="matrix(0.70710678,-0.70710679,0.70710679,0.70710678,-2454.0168,300.36104)"><use xlink:href="#branch"/></g></g></g><g id="g15398" transform="matrix(0.70710678,-0.70710679,-0.70710679,-0.70710678,1485.2654,-1246.7997)"><use xlink:href="#branches"/></g></g><g id="g33866" transform="matrix(2.9875062,0,0,2.9875062,2200.614,-3769.9768)"><use xlink:href="#yellowbulb"/></g><g id="g33962" transform="matrix(2.5872563,-1.4937531,1.4937531,2.5872563,164.65673,-4286.1498)"><use xlink:href="#yellowbulb"/></g><g id="g34058" transform="matrix(1.4937531,-2.5872563,2.5872563,1.4937531,-1856.6205,-3715.1901)"><use xlink:href="#yellowbulb"/></g><g id="g34154" transform="matrix(-1.8418243e-8,-2.9875062,2.9875062,-1.8418243e-8,-3321.6181,-2210.0859)"><use xlink:href="#yellowbulb"/></g><g id="g34250" transform="matrix(-1.4937531,-2.5872563,2.5872563,-1.4937531,-3837.7911,-174.12861)"><use xlink:href="#yellowbulb"/></g><g id="g34346" transform="matrix(-2.5872563,-1.4937531,1.4937531,-2.5872563,-3266.8314,1847.1486)"><use xlink:href="#yellowbulb"/></g><g id="g34442" transform="matrix(-2.5872563,-1.4937531,-1.4937531,2.5872563,220.04208,-4269.1792)"><use xlink:href="#yellowbulb"/></g><g id="g34538" transform="matrix(-1.4937531,-2.5872563,-2.5872563,1.4937531,2241.3193,-3698.2195)"><use xlink:href="#yellowbulb"/></g><g id="g34634" transform="matrix(1.8418243e-8,-2.9875062,-2.9875062,-1.8418243e-8,3706.3169,-2193.1153)"><use xlink:href="#yellowbulb"/></g><g id="g34730" transform="matrix(1.4937531,-2.5872563,-2.5872563,-1.4937531,4222.4899,-157.15805)"><use xlink:href="#yellowbulb"/></g><g id="g34826" transform="matrix(2.5872563,-1.4937531,-1.4937531,-2.5872563,3651.5302,1864.1192)"><use xlink:href="#yellowbulb"/></g><g id="g34922" transform="matrix(1.6658839,-0.44637224,0.44637224,1.6658839,754.69352,-2693.3145)"><use xlink:href="#redbulb"/></g><g id="g35014" transform="matrix(1.2195117,-1.2195116,1.2195116,1.2195117,-539.79984,-2629.572)"><use xlink:href="#redbulb"/></g><g id="g35106" transform="matrix(0.44637231,-1.6658839,1.6658839,0.44637231,-1628.9927,-1927.1227)"><use xlink:href="#redbulb"/></g><g id="g35198" transform="matrix(-0.44637219,-1.6658839,1.6658839,-0.44637219,-2221.0368,-774.18731)"><use xlink:href="#redbulb"/></g><g id="g35290" transform="matrix(-1.2195116,-1.2195117,1.2195117,-1.2195116,-2157.2943,520.30607)"><use xlink:href="#redbulb"/></g><g id="g35382" transform="matrix(-1.6658839,-0.44637231,0.44637231,-1.6658839,-1454.845,1609.499)"><use xlink:href="#redbulb"/></g><g id="g35474" transform="matrix(-1.6658839,-0.44637224,-0.44637224,1.6658839,-321.3196,-2698.9714)"><use xlink:href="#redbulb"/></g><g id="g35566" transform="matrix(-1.2195117,-1.2195116,-1.2195116,1.2195117,973.17379,-2635.2289)"><use xlink:href="#redbulb"/></g><g id="g35658" transform="matrix(-0.44637231,-1.6658839,-1.6658839,0.44637231,2062.3667,-1932.7796)"><use xlink:href="#redbulb"/></g><g id="g35750" transform="matrix(0.44637219,-1.6658839,-1.6658839,-0.44637219,2654.4108,-779.84416)"><use xlink:href="#redbulb"/></g><g id="g35842" transform="matrix(1.2195116,-1.2195117,-1.2195117,-1.2195116,2590.6683,514.64922)"><use xlink:href="#redbulb"/></g><g id="g35934" transform="matrix(1.6658839,-0.44637231,-0.44637231,-1.6658839,1888.219,1603.8421)"><use xlink:href="#redbulb"/></g><g id="g36026" transform="matrix(1.7246499,0,0,1.7246499,1252.1688,-2378.3838)"><use xlink:href="#bluebulb"/></g><g id="g36118" transform="matrix(1.4935906,-0.86232495,0.86232495,1.4935906,45.379325,-2617.1873)"><use xlink:href="#bluebulb"/></g><g id="g36210" transform="matrix(0.86232493,-1.4935906,1.4935906,0.86232493,-1119.1328,-2220.6025)"><use xlink:href="#bluebulb"/></g><g id="g36302" transform="matrix(0,-1.7246499,1.7246499,0,-1929.3375,-1294.8939)"><use xlink:href="#bluebulb"/></g><g id="g36394" transform="matrix(-0.86232495,-1.4935906,1.4935906,-0.86232495,-2168.141,-88.104383)"><use xlink:href="#bluebulb"/></g><g id="g36486" transform="matrix(-1.4935906,-0.86232493,0.86232493,-1.4935906,-1771.5561,1076.4077)"><use xlink:href="#bluebulb"/></g><g id="g36578" transform="matrix(-1.7246499,0,0,-1.7246499,-845.8475,1886.6123)"><use xlink:href="#bluebulb"/></g><g id="g36762" transform="matrix(-1.4935906,-0.86232495,-0.86232495,1.4935906,394.80356,-2605.8736)"><use xlink:href="#bluebulb"/></g><g id="g36854" transform="matrix(-0.86232493,-1.4935906,-1.4935906,0.86232493,1559.3157,-2209.2888)"><use xlink:href="#bluebulb"/></g><g id="g36946" transform="matrix(0,-1.7246499,-1.7246499,0,2369.5204,-1283.5802)"><use xlink:href="#bluebulb"/></g><g id="g37038" transform="matrix(0.86232495,-1.4935906,-1.4935906,-0.86232495,2608.3239,-76.790675)"><use xlink:href="#bluebulb"/></g><g id="g37130" transform="matrix(1.4935906,-0.86232493,-0.86232493,-1.4935906,2211.739,1087.7214)"><use xlink:href="#bluebulb"/></g><g id="g37222" transform="matrix(1.7246499,0,0,-1.7246499,1286.0304,1897.926)"><use xlink:href="#bluebulb"/></g><g transform="matrix(-0.24971129,0.61490367,0.61490367,0.24971129,472.88105,199.30441)"><use xlink:href="#bowloop"/></g><path class="bow" d="m225-710c195 196 154 112 193 189 31 60 29 198 29 198l-68-71-81 103c0 0 24-137 1-198-29-77-170-192-170-192l113-38zM199-697C60-457 78-548 60-464c-15 66 24 199 24 199l48-86 106 79c0 0-60-126-53-191 9-82 116-229 116-229l-120-8z" stroke-width="1"/><g transform="matrix(-0.6636733,0,0,0.6636733,-501.67251,-59.546305)"><use xlink:href="#bowloop"/></g><g transform="matrix(0.64105918,-0.17177129,0.17177129,0.64105918,1082.1125,-270.66423)"><use xlink:href="#bowloop"/></g><g transform="matrix(0.6636733,0,0,0.6636733,956.75169,-80.008025)"><use xlink:href="#bowloop"/></g><g transform="matrix(-0.57475794,0.33183666,0.33183666,0.57475794,-110.25287,222.80492)"><use xlink:href="#bowloop"/></g></g></svg>
